<svg version="1.1" xmlns="http://www.w3.org/2000/svg" xmlns:xlink="http://www.w3.org/1999/xlink" width="772" height="675"><defs></defs><g><g transform="translate(-130,-70) scale(1,1)"><rect fill="#C0C0C0" stroke="none" x="147" y="279" width="115" height="205" opacity="0.2"></rect></g><g transform="translate(-130,-70) scale(1,1)"><rect fill="#ffffff" stroke="none" x="140" y="272" width="115" height="205"></rect></g><g transform="translate(-130,-70) scale(1,1)"><path fill="none" stroke="#000000" d="M 140 272 L 255 272 L 255 477 L 140 477 L 140 272 Z Z" stroke-miterlimit="10"></path></g><g transform="translate(-130,-70) scale(1,1)"><path fill="none" stroke="#000000" d="M 140 297 L 255 297" stroke-miterlimit="10"></path></g><g transform="translate(-130,-70) scale(1,1)"><path fill="none" stroke="#000000" d="M 140 380 L 255 380" stroke-miterlimit="10"></path></g><g transform="translate(-130,-70) scale(1,1)"><g><path fill="none" stroke="none"></path><text fill="#000000" stroke="none" font-family="Arial" font-size="13px" font-style="normal" font-weight="bold" text-decoration="none" x="169.5" y="291.5">MyObject</text></g></g><g transform="translate(-130,-70) scale(1,1)"><g><path fill="none" stroke="none"></path><text fill="#000000" stroke="none" font-family="Arial" font-size="13px" font-style="normal" font-weight="normal" text-decoration="none" x="145" y="314.5">+Position</text></g></g><g transform="translate(-130,-70) scale(1,1)"><g><path fill="none" stroke="none"></path><text fill="#000000" stroke="none" font-family="Arial" font-size="13px" font-style="normal" font-weight="normal" text-decoration="none" x="145" y="329.5">+Size</text></g></g><g transform="translate(-130,-70) scale(1,1)"><g><path fill="none" stroke="none"></path><text fill="#000000" stroke="none" font-family="Arial" font-size="13px" font-style="normal" font-weight="normal" text-decoration="none" x="145" y="344.5">+Type</text></g></g><g transform="translate(-130,-70) scale(1,1)"><g><path fill="none" stroke="none"></path><text fill="#000000" stroke="none" font-family="Arial" font-size="13px" font-style="normal" font-weight="normal" text-decoration="none" x="145" y="359.5">+Stage</text></g></g><g transform="translate(-130,-70) scale(1,1)"><g><path fill="none" stroke="none"></path><text fill="#000000" stroke="none" font-family="Arial" font-size="13px" font-style="normal" font-weight="normal" text-decoration="none" x="145" y="374.5">+KeyboardBinding</text></g></g><g transform="translate(-130,-70) scale(1,1)"><g><path fill="none" stroke="none"></path><text fill="#000000" stroke="none" font-family="Arial" font-size="13px" font-style="normal" font-weight="normal" text-decoration="none" x="145" y="397.5">+Move()</text></g></g><g transform="translate(-130,-70) scale(1,1)"><g><path fill="none" stroke="none"></path><text fill="#000000" stroke="none" font-family="Arial" font-size="13px" font-style="normal" font-weight="normal" text-decoration="none" x="145" y="412.5">+kill()</text></g></g><g transform="translate(-130,-70) scale(1,1)"><g><path fill="none" stroke="none"></path><text fill="#000000" stroke="none" font-family="Arial" font-size="13px" font-style="normal" font-weight="normal" text-decoration="none" x="145" y="427.5">+isExplosion()</text></g></g><g transform="translate(-130,-70) scale(1,1)"><g><path fill="none" stroke="none"></path><text fill="#000000" stroke="none" font-family="Arial" font-size="13px" font-style="normal" font-weight="normal" text-decoration="none" x="145" y="442.5">+reloadTexture()</text></g></g><g transform="translate(-130,-70) scale(1,1)"><g><path fill="none" stroke="none"></path><text fill="#000000" stroke="none" font-family="Arial" font-size="13px" font-style="normal" font-weight="normal" text-decoration="none" x="145" y="457.5">+isOutOfWindow()</text></g></g><g transform="translate(-130,-70) scale(1,1)"><g><path fill="none" stroke="none"></path><text fill="#000000" stroke="none" font-family="Arial" font-size="13px" font-style="normal" font-weight="normal" text-decoration="none" x="145" y="472.5">+getLifeState()</text></g></g><g transform="translate(-130,-70) scale(1,1)"><rect fill="#C0C0C0" stroke="none" x="387" y="343" width="111" height="130" opacity="0.2"></rect></g><g transform="translate(-130,-70) scale(1,1)"><rect fill="#ffffff" stroke="none" x="380" y="336" width="111" height="130"></rect></g><g transform="translate(-130,-70) scale(1,1)"><path fill="none" stroke="#000000" d="M 380 336 L 491 336 L 491 466 L 380 466 L 380 336 Z Z" stroke-miterlimit="10"></path></g><g transform="translate(-130,-70) scale(1,1)"><path fill="none" stroke="#000000" d="M 380 361 L 491 361" stroke-miterlimit="10"></path></g><g transform="translate(-130,-70) scale(1,1)"><path fill="none" stroke="#000000" d="M 380 399 L 491 399" stroke-miterlimit="10"></path></g><g transform="translate(-130,-70) scale(1,1)"><g><path fill="none" stroke="none"></path><text fill="#000000" stroke="none" font-family="Arial" font-size="13px" font-style="normal" font-weight="bold" text-decoration="none" x="415" y="355.5">Shuttle</text></g></g><g transform="translate(-130,-70) scale(1,1)"><g><path fill="none" stroke="none"></path><text fill="#000000" stroke="none" font-family="Arial" font-size="13px" font-style="normal" font-weight="normal" text-decoration="none" x="385" y="378.5">-ttl</text></g></g><g transform="translate(-130,-70) scale(1,1)"><g><path fill="none" stroke="none"></path><text fill="#000000" stroke="none" font-family="Arial" font-size="13px" font-style="normal" font-weight="normal" text-decoration="none" x="385" y="393.5">+Life</text></g></g><g transform="translate(-130,-70) scale(1,1)"><g><path fill="none" stroke="none"></path><text fill="#000000" stroke="none" font-family="Arial" font-size="13px" font-style="normal" font-weight="normal" text-decoration="none" x="385" y="416.5">+Move()</text></g></g><g transform="translate(-130,-70) scale(1,1)"><g><path fill="none" stroke="none"></path><text fill="#000000" stroke="none" font-family="Arial" font-size="13px" font-style="normal" font-weight="normal" text-decoration="none" x="385" y="431.5">+placeAtBottom()</text></g></g><g transform="translate(-130,-70) scale(1,1)"><g><path fill="none" stroke="none"></path><text fill="#000000" stroke="none" font-family="Arial" font-size="13px" font-style="normal" font-weight="normal" text-decoration="none" x="385" y="446.5">+fire()</text></g></g><g transform="translate(-130,-70) scale(1,1)"><g><path fill="none" stroke="none"></path><text fill="#000000" stroke="none" font-family="Arial" font-size="13px" font-style="normal" font-weight="normal" text-decoration="none" x="385" y="461.5">+kill()</text></g></g><g transform="translate(-130,-70) scale(1,1)"><path fill="none" stroke="#000000" d="M 255 384 L 380 384" stroke-miterlimit="10"></path></g><g transform="translate(-130,-70) scale(1,1)"><path fill="#FFFFFF" stroke="none" d="M 359.6746502847517 392.419035512032 L 380 384 L 359.6746502847517 375.580964487968"></path></g><g transform="translate(-130,-70) scale(1,1)"><path fill="none" stroke="#000000" d="M 359.6746502847517 392.419035512032 L 380 384 L 359.6746502847517 375.580964487968 L 359.6746502847517 392.419035512032" stroke-miterlimit="10"></path></g><g transform="translate(-130,-70) scale(1,1)"><rect fill="#C0C0C0" stroke="none" x="387" y="507" width="144" height="130" opacity="0.2"></rect></g><g transform="translate(-130,-70) scale(1,1)"><rect fill="#ffffff" stroke="none" x="380" y="500" width="144" height="130"></rect></g><g transform="translate(-130,-70) scale(1,1)"><path fill="none" stroke="#000000" d="M 380 500 L 524 500 L 524 630 L 380 630 L 380 500 Z Z" stroke-miterlimit="10"></path></g><g transform="translate(-130,-70) scale(1,1)"><path fill="none" stroke="#000000" d="M 380 525 L 524 525" stroke-miterlimit="10"></path></g><g transform="translate(-130,-70) scale(1,1)"><path fill="none" stroke="#000000" d="M 380 563 L 524 563" stroke-miterlimit="10"></path></g><g transform="translate(-130,-70) scale(1,1)"><g><path fill="none" stroke="none"></path><text fill="#000000" stroke="none" font-family="Arial" font-size="13px" font-style="normal" font-weight="bold" text-decoration="none" x="431.5" y="519.5">Enemy</text></g></g><g transform="translate(-130,-70) scale(1,1)"><g><path fill="none" stroke="none"></path><text fill="#000000" stroke="none" font-family="Arial" font-size="13px" font-style="normal" font-weight="normal" text-decoration="none" x="385" y="542.5">-_velocity</text></g></g><g transform="translate(-130,-70) scale(1,1)"><g><path fill="none" stroke="none"></path><text fill="#000000" stroke="none" font-family="Arial" font-size="13px" font-style="normal" font-weight="normal" text-decoration="none" x="385" y="557.5">-ttl</text></g></g><g transform="translate(-130,-70) scale(1,1)"><g><path fill="none" stroke="none"></path><text fill="#000000" stroke="none" font-family="Arial" font-size="13px" font-style="normal" font-weight="normal" text-decoration="none" x="385" y="580.5">+setVelocity()</text></g></g><g transform="translate(-130,-70) scale(1,1)"><g><path fill="none" stroke="none"></path><text fill="#000000" stroke="none" font-family="Arial" font-size="13px" font-style="normal" font-weight="normal" text-decoration="none" x="385" y="595.5">+animate()</text></g></g><g transform="translate(-130,-70) scale(1,1)"><g><path fill="none" stroke="none"></path><text fill="#000000" stroke="none" font-family="Arial" font-size="13px" font-style="normal" font-weight="normal" text-decoration="none" x="385" y="610.5">+playExplodeAnimate()</text></g></g><g transform="translate(-130,-70) scale(1,1)"><g><path fill="none" stroke="none"></path><text fill="#000000" stroke="none" font-family="Arial" font-size="13px" font-style="normal" font-weight="normal" text-decoration="none" x="385" y="625.5">+playBoomEffect()</text></g></g><g transform="translate(-130,-70) scale(1,1)"><path fill="none" stroke="#000000" d="M 255 382 L 300 382 L 300 564 L 380 564" stroke-miterlimit="10"></path></g><g transform="translate(-130,-70) scale(1,1)"><path fill="#FFFFFF" stroke="none" d="M 359.6746502847517 572.419035512032 L 380 564 L 359.6746502847517 555.580964487968"></path></g><g transform="translate(-130,-70) scale(1,1)"><path fill="none" stroke="#000000" d="M 359.6746502847517 572.419035512032 L 380 564 L 359.6746502847517 555.580964487968 L 359.6746502847517 572.419035512032" stroke-miterlimit="10"></path></g><g transform="translate(-130,-70) scale(1,1)"><rect fill="#C0C0C0" stroke="none" x="391" y="199" width="92" height="100" opacity="0.2"></rect></g><g transform="translate(-130,-70) scale(1,1)"><rect fill="#ffffff" stroke="none" x="384" y="192" width="92" height="100"></rect></g><g transform="translate(-130,-70) scale(1,1)"><path fill="none" stroke="#000000" d="M 384 192 L 476 192 L 476 292 L 384 292 L 384 192 Z Z" stroke-miterlimit="10"></path></g><g transform="translate(-130,-70) scale(1,1)"><path fill="none" stroke="#000000" d="M 384 217 L 476 217" stroke-miterlimit="10"></path></g><g transform="translate(-130,-70) scale(1,1)"><path fill="none" stroke="#000000" d="M 384 255 L 476 255" stroke-miterlimit="10"></path></g><g transform="translate(-130,-70) scale(1,1)"><g><path fill="none" stroke="none"></path><text fill="#000000" stroke="none" font-family="Arial" font-size="13px" font-style="normal" font-weight="bold" text-decoration="none" x="413" y="211.5">Bomb</text></g></g><g transform="translate(-130,-70) scale(1,1)"><g><path fill="none" stroke="none"></path><text fill="#000000" stroke="none" font-family="Arial" font-size="13px" font-style="normal" font-weight="normal" text-decoration="none" x="389" y="234.5">-_src</text></g></g><g transform="translate(-130,-70) scale(1,1)"><g><path fill="none" stroke="none"></path><text fill="#000000" stroke="none" font-family="Arial" font-size="13px" font-style="normal" font-weight="normal" text-decoration="none" x="389" y="249.5">-_velocity</text></g></g><g transform="translate(-130,-70) scale(1,1)"><g><path fill="none" stroke="none"></path><text fill="#000000" stroke="none" font-family="Arial" font-size="13px" font-style="normal" font-weight="normal" text-decoration="none" x="389" y="272.5">+shoot()</text></g></g><g transform="translate(-130,-70) scale(1,1)"><g><path fill="none" stroke="none"></path><text fill="#000000" stroke="none" font-family="Arial" font-size="13px" font-style="normal" font-weight="normal" text-decoration="none" x="389" y="287.5">+getSrcType()</text></g></g><g transform="translate(-130,-70) scale(1,1)"><path fill="none" stroke="#000000" d="M 255 382 L 300 382 L 300 234 L 384 234" stroke-miterlimit="10"></path></g><g transform="translate(-130,-70) scale(1,1)"><path fill="#FFFFFF" stroke="none" d="M 363.6746502847517 242.41903551203197 L 384 234 L 363.6746502847517 225.58096448796803"></path></g><g transform="translate(-130,-70) scale(1,1)"><path fill="none" stroke="#000000" d="M 363.6746502847517 242.41903551203197 L 384 234 L 363.6746502847517 225.58096448796803 L 363.6746502847517 242.41903551203197" stroke-miterlimit="10"></path></g><g transform="translate(-130,-70) scale(1,1)"><rect fill="#C0C0C0" stroke="none" x="391" y="87" width="88" height="70" opacity="0.2"></rect></g><g transform="translate(-130,-70) scale(1,1)"><rect fill="#ffffff" stroke="none" x="384" y="80" width="88" height="70"></rect></g><g transform="translate(-130,-70) scale(1,1)"><path fill="none" stroke="#000000" d="M 384 80 L 472 80 L 472 150 L 384 150 L 384 80 Z Z" stroke-miterlimit="10"></path></g><g transform="translate(-130,-70) scale(1,1)"><path fill="none" stroke="#000000" d="M 384 105 L 472 105" stroke-miterlimit="10"></path></g><g transform="translate(-130,-70) scale(1,1)"><path fill="none" stroke="#000000" d="M 384 128 L 472 128" stroke-miterlimit="10"></path></g><g transform="translate(-130,-70) scale(1,1)"><g><path fill="none" stroke="none"></path><text fill="#000000" stroke="none" font-family="Arial" font-size="13px" font-style="normal" font-weight="bold" text-decoration="none" x="409.5" y="99.5">Bonus</text></g></g><g transform="translate(-130,-70) scale(1,1)"><g><path fill="none" stroke="none"></path><text fill="#000000" stroke="none" font-family="Arial" font-size="13px" font-style="normal" font-weight="normal" text-decoration="none" x="389" y="122.5">-_velocity</text></g></g><g transform="translate(-130,-70) scale(1,1)"><g><path fill="none" stroke="none"></path><text fill="#000000" stroke="none" font-family="Arial" font-size="13px" font-style="normal" font-weight="normal" text-decoration="none" x="389" y="145.5">+animate()</text></g></g><g transform="translate(-130,-70) scale(1,1)"><path fill="none" stroke="#000000" d="M 255 382 L 300 382 L 300 115 L 384 115" stroke-miterlimit="10"></path></g><g transform="translate(-130,-70) scale(1,1)"><path fill="#FFFFFF" stroke="none" d="M 363.6746502847517 123.41903551203198 L 384 115 L 363.6746502847517 106.58096448796803"></path></g><g transform="translate(-130,-70) scale(1,1)"><path fill="none" stroke="#000000" d="M 363.6746502847517 123.41903551203198 L 384 115 L 363.6746502847517 106.58096448796803 L 363.6746502847517 123.41903551203198" stroke-miterlimit="10"></path></g><g transform="translate(-130,-70) scale(1,1)"><rect fill="#C0C0C0" stroke="none" x="567" y="627" width="125" height="115" opacity="0.2"></rect></g><g transform="translate(-130,-70) scale(1,1)"><rect fill="#ffffff" stroke="none" x="560" y="620" width="125" height="115"></rect></g><g transform="translate(-130,-70) scale(1,1)"><path fill="none" stroke="#000000" d="M 560 620 L 685 620 L 685 735 L 560 735 L 560 620 Z Z" stroke-miterlimit="10"></path></g><g transform="translate(-130,-70) scale(1,1)"><path fill="none" stroke="#000000" d="M 560 645 L 685 645" stroke-miterlimit="10"></path></g><g transform="translate(-130,-70) scale(1,1)"><path fill="none" stroke="#000000" d="M 560 683 L 685 683" stroke-miterlimit="10"></path></g><g transform="translate(-130,-70) scale(1,1)"><g><path fill="none" stroke="none"></path><text fill="#000000" stroke="none" font-family="Arial" font-size="13px" font-style="normal" font-weight="bold" text-decoration="none" x="588" y="639.5">Background</text></g></g><g transform="translate(-130,-70) scale(1,1)"><g><path fill="none" stroke="none"></path><text fill="#000000" stroke="none" font-family="Arial" font-size="13px" font-style="normal" font-weight="normal" text-decoration="none" x="565" y="662.5">-__bgmPath</text></g></g><g transform="translate(-130,-70) scale(1,1)"><g><path fill="none" stroke="none"></path><text fill="#000000" stroke="none" font-family="Arial" font-size="13px" font-style="normal" font-weight="normal" text-decoration="none" x="565" y="677.5">-bgm</text></g></g><g transform="translate(-130,-70) scale(1,1)"><g><path fill="none" stroke="none"></path><text fill="#000000" stroke="none" font-family="Arial" font-size="13px" font-style="normal" font-weight="normal" text-decoration="none" x="565" y="700.5">+loadBackMusic()</text></g></g><g transform="translate(-130,-70) scale(1,1)"><g><path fill="none" stroke="none"></path><text fill="#000000" stroke="none" font-family="Arial" font-size="13px" font-style="normal" font-weight="normal" text-decoration="none" x="565" y="715.5">+stopBackMusic()</text></g></g><g transform="translate(-130,-70) scale(1,1)"><g><path fill="none" stroke="none"></path><text fill="#000000" stroke="none" font-family="Arial" font-size="13px" font-style="normal" font-weight="normal" text-decoration="none" x="565" y="730.5">+reviveBackMusic()</text></g></g><g transform="translate(-130,-70) scale(1,1)"><rect fill="#C0C0C0" stroke="none" x="759" y="211" width="140" height="430" opacity="0.2"></rect></g><g transform="translate(-130,-70) scale(1,1)"><rect fill="#ffffff" stroke="none" x="752" y="204" width="140" height="430"></rect></g><g transform="translate(-130,-70) scale(1,1)"><path fill="none" stroke="#000000" d="M 752 204 L 892 204 L 892 634 L 752 634 L 752 204 Z Z" stroke-miterlimit="10"></path></g><g transform="translate(-130,-70) scale(1,1)"><path fill="none" stroke="#000000" d="M 752 229 L 892 229" stroke-miterlimit="10"></path></g><g transform="translate(-130,-70) scale(1,1)"><path fill="none" stroke="#000000" d="M 752 417 L 892 417" stroke-miterlimit="10"></path></g><g transform="translate(-130,-70) scale(1,1)"><g><path fill="none" stroke="none"></path><text fill="#000000" stroke="none" font-family="Arial" font-size="13px" font-style="normal" font-weight="bold" text-decoration="none" x="805" y="223.5">Stage</text></g></g><g transform="translate(-130,-70) scale(1,1)"><g><path fill="none" stroke="none"></path><text fill="#000000" stroke="none" font-family="Arial" font-size="13px" font-style="normal" font-weight="normal" text-decoration="none" x="757" y="246.5">-m_window</text></g></g><g transform="translate(-130,-70) scale(1,1)"><g><path fill="none" stroke="none"></path><text fill="#000000" stroke="none" font-family="Arial" font-size="13px" font-style="normal" font-weight="normal" text-decoration="none" x="757" y="261.5">-m_enemies</text></g></g><g transform="translate(-130,-70) scale(1,1)"><g><path fill="none" stroke="none"></path><text fill="#000000" stroke="none" font-family="Arial" font-size="13px" font-style="normal" font-weight="normal" text-decoration="none" x="757" y="276.5">-m_bombs</text></g></g><g transform="translate(-130,-70) scale(1,1)"><g><path fill="none" stroke="none"></path><text fill="#000000" stroke="none" font-family="Arial" font-size="13px" font-style="normal" font-weight="normal" text-decoration="none" x="757" y="291.5">-m_bombs_e</text></g></g><g transform="translate(-130,-70) scale(1,1)"><g><path fill="none" stroke="none"></path><text fill="#000000" stroke="none" font-family="Arial" font-size="13px" font-style="normal" font-weight="normal" text-decoration="none" x="757" y="306.5">-m_bonus_life</text></g></g><g transform="translate(-130,-70) scale(1,1)"><g><path fill="none" stroke="none"></path><text fill="#000000" stroke="none" font-family="Arial" font-size="13px" font-style="normal" font-weight="normal" text-decoration="none" x="757" y="321.5">-m_super</text></g></g><g transform="translate(-130,-70) scale(1,1)"><g><path fill="none" stroke="none"></path><text fill="#000000" stroke="none" font-family="Arial" font-size="13px" font-style="normal" font-weight="normal" text-decoration="none" x="757" y="336.5">-hero</text></g></g><g transform="translate(-130,-70) scale(1,1)"><g><path fill="none" stroke="none"></path><text fill="#000000" stroke="none" font-family="Arial" font-size="13px" font-style="normal" font-weight="normal" text-decoration="none" x="757" y="351.5">-points</text></g></g><g transform="translate(-130,-70) scale(1,1)"><g><path fill="none" stroke="none"></path><text fill="#000000" stroke="none" font-family="Arial" font-size="13px" font-style="normal" font-weight="normal" text-decoration="none" x="757" y="366.5">-level</text></g></g><g transform="translate(-130,-70) scale(1,1)"><g><path fill="none" stroke="none"></path><text fill="#000000" stroke="none" font-family="Arial" font-size="13px" font-style="normal" font-weight="normal" text-decoration="none" x="757" y="381.5">-m_bg</text></g></g><g transform="translate(-130,-70) scale(1,1)"><g><path fill="none" stroke="none"></path><text fill="#000000" stroke="none" font-family="Arial" font-size="13px" font-style="normal" font-weight="normal" text-decoration="none" x="757" y="396.5">-fps</text></g></g><g transform="translate(-130,-70) scale(1,1)"><g><path fill="none" stroke="none"></path><text fill="#000000" stroke="none" font-family="Arial" font-size="13px" font-style="normal" font-weight="normal" text-decoration="none" x="757" y="411.5">+allowSoundEffect</text></g></g><g transform="translate(-130,-70) scale(1,1)"><g><path fill="none" stroke="none"></path><text fill="#000000" stroke="none" font-family="Arial" font-size="13px" font-style="normal" font-weight="normal" text-decoration="none" x="757" y="434.5">+loadFrame()</text></g></g><g transform="translate(-130,-70) scale(1,1)"><g><path fill="none" stroke="none"></path><text fill="#000000" stroke="none" font-family="Arial" font-size="13px" font-style="normal" font-weight="normal" text-decoration="none" x="757" y="449.5">+playBackMusic()</text></g></g><g transform="translate(-130,-70) scale(1,1)"><g><path fill="none" stroke="none"></path><text fill="#000000" stroke="none" font-family="Arial" font-size="13px" font-style="normal" font-weight="normal" text-decoration="none" x="757" y="464.5">+stopBackMusic()</text></g></g><g transform="translate(-130,-70) scale(1,1)"><g><path fill="none" stroke="none"></path><text fill="#000000" stroke="none" font-family="Arial" font-size="13px" font-style="normal" font-weight="normal" text-decoration="none" x="757" y="479.5">+reviveBackMusic()</text></g></g><g transform="translate(-130,-70) scale(1,1)"><g><path fill="none" stroke="none"></path><text fill="#000000" stroke="none" font-family="Arial" font-size="13px" font-style="normal" font-weight="normal" text-decoration="none" x="757" y="494.5">+playBoomEffect()</text></g></g><g transform="translate(-130,-70) scale(1,1)"><g><path fill="none" stroke="none"></path><text fill="#000000" stroke="none" font-family="Arial" font-size="13px" font-style="normal" font-weight="normal" text-decoration="none" x="757" y="509.5">+playDamageEffect()</text></g></g><g transform="translate(-130,-70) scale(1,1)"><g><path fill="none" stroke="none"></path><text fill="#000000" stroke="none" font-family="Arial" font-size="13px" font-style="normal" font-weight="normal" text-decoration="none" x="757" y="524.5">+playUpgradeEffect()</text></g></g><g transform="translate(-130,-70) scale(1,1)"><g><path fill="none" stroke="none"></path><text fill="#000000" stroke="none" font-family="Arial" font-size="13px" font-style="normal" font-weight="normal" text-decoration="none" x="757" y="539.5">+increAvaliableBomb()</text></g></g><g transform="translate(-130,-70) scale(1,1)"><g><path fill="none" stroke="none"></path><text fill="#000000" stroke="none" font-family="Arial" font-size="13px" font-style="normal" font-weight="normal" text-decoration="none" x="757" y="554.5">+reset()</text></g></g><g transform="translate(-130,-70) scale(1,1)"><g><path fill="none" stroke="none"></path><text fill="#000000" stroke="none" font-family="Arial" font-size="13px" font-style="normal" font-weight="normal" text-decoration="none" x="757" y="569.5">+drawMessage()</text></g></g><g transform="translate(-130,-70) scale(1,1)"><g><path fill="none" stroke="none"></path><text fill="#000000" stroke="none" font-family="Arial" font-size="13px" font-style="normal" font-weight="normal" text-decoration="none" x="757" y="584.5">+collisionTest()</text></g></g><g transform="translate(-130,-70) scale(1,1)"><g><path fill="none" stroke="none"></path><text fill="#000000" stroke="none" font-family="Arial" font-size="13px" font-style="normal" font-weight="normal" text-decoration="none" x="757" y="599.5">-drawProperties()</text></g></g><g transform="translate(-130,-70) scale(1,1)"><g><path fill="none" stroke="none"></path><text fill="#000000" stroke="none" font-family="Arial" font-size="13px" font-style="normal" font-weight="normal" text-decoration="none" x="757" y="614.5">-getValueByLevel()</text></g></g><g transform="translate(-130,-70) scale(1,1)"><g><path fill="none" stroke="none"></path><text fill="#000000" stroke="none" font-family="Arial" font-size="13px" font-style="normal" font-weight="normal" text-decoration="none" x="757" y="629.5">-keyBoardEvents()</text></g></g><g transform="translate(-130,-70) scale(1,1)"><path fill="none" stroke="#000000" d="M 752 400 L 491 400" stroke-miterlimit="10"></path></g><g transform="translate(-130,-70) scale(1,1)"><path fill="#FFFFFF" stroke="none" d="M 501.16267485762415 395.790482243984 L 491 400 L 501.16267485762415 404.209517756016 L 513 400"></path></g><g transform="translate(-130,-70) scale(1,1)"><path fill="none" stroke="#000000" d="M 501.16267485762415 395.790482243984 L 491 400 L 501.16267485762415 404.209517756016 L 513 400 L 501.16267485762415 395.790482243984" stroke-miterlimit="10"></path></g><g transform="translate(-130,-70) scale(1,1)"><path fill="none" stroke="#000000" d="M 752 248 L 476 248" stroke-miterlimit="10"></path></g><g transform="translate(-130,-70) scale(1,1)"><path fill="#FFFFFF" stroke="none" d="M 486.16267485762415 243.790482243984 L 476 248 L 486.16267485762415 252.209517756016 L 498 248"></path></g><g transform="translate(-130,-70) scale(1,1)"><path fill="none" stroke="#000000" d="M 486.16267485762415 243.790482243984 L 476 248 L 486.16267485762415 252.209517756016 L 498 248 L 486.16267485762415 243.790482243984" stroke-miterlimit="10"></path></g><g transform="translate(-130,-70) scale(1,1)"><path fill="none" stroke="#000000" d="M 752 572 L 524 572" stroke-miterlimit="10"></path></g><g transform="translate(-130,-70) scale(1,1)"><path fill="#FFFFFF" stroke="none" d="M 534.1626748576241 567.790482243984 L 524 572 L 534.1626748576241 576.209517756016 L 546 572"></path></g><g transform="translate(-130,-70) scale(1,1)"><path fill="none" stroke="#000000" d="M 534.1626748576241 567.790482243984 L 524 572 L 534.1626748576241 576.209517756016 L 546 572 L 534.1626748576241 567.790482243984" stroke-miterlimit="10"></path></g><g transform="translate(-130,-70) scale(1,1)"><path fill="none" stroke="#000000" d="M 751 511 L 667 619" stroke-miterlimit="10"></path></g><g transform="translate(-130,-70) scale(1,1)"><path fill="#FFFFFF" stroke="none" d="M 669.9164866622461 608.3936761529293 L 667 619 L 676.5620710118386 613.5624639803901 L 680.5066934973282 601.6342512177208"></path></g><g transform="translate(-130,-70) scale(1,1)"><path fill="none" stroke="#000000" d="M 669.9164866622461 608.3936761529293 L 667 619 L 676.5620710118386 613.5624639803901 L 680.5066934973282 601.6342512177208 L 669.9164866622461 608.3936761529293" stroke-miterlimit="10"></path></g><g transform="translate(-130,-70) scale(1,1)"><path fill="none" stroke="#000000" d="M 751 364 L 473 150" stroke-miterlimit="10"></path></g><g transform="translate(-130,-70) scale(1,1)"><path fill="#FFFFFF" stroke="none" d="M 483.6207735215426 152.8634192504939 L 473 150 L 478.48527780912497 159.53476414793366 L 490.43306433782357 163.41969700825265"></path></g><g transform="translate(-130,-70) scale(1,1)"><path fill="none" stroke="#000000" d="M 483.6207735215426 152.8634192504939 L 473 150 L 478.48527780912497 159.53476414793366 L 490.43306433782357 163.41969700825265 L 483.6207735215426 152.8634192504939" stroke-miterlimit="10"></path></g></g></svg>